name Walk7.mot
datacolumns 19
datarows 27
range 2.33500000 2.36100000
endheader

                time	   L_ground_force_vx	   L_ground_force_vy	   L_ground_force_vz	   L_ground_force_px	   L_ground_force_py	   L_ground_force_pz	   R_ground_force_vx	   R_ground_force_vy	   R_ground_force_vz	   R_ground_force_px	   R_ground_force_py	   R_ground_force_pz	   L_ground_torque_x	   L_ground_torque_y	   L_ground_torque_z	   R_ground_torque_x	   R_ground_torque_y	   R_ground_torque_z	
          2.33500000	         -1.41833472	         74.34156915	         -0.41729000	          0.00209820	          0.00000000	          0.00108287	         -0.00000000	          0.00000000	          0.00000000	          0.00000000	          0.00000000	          0.00000000	          0.00000000	          0.05341450	          0.00000000	          0.00000000	          0.00000000	          0.00000000	
          2.33600000	         -2.10718340	         81.32843411	         -0.42261654	         -0.01157955	          0.00000000	          0.00083143	         -0.00000000	          0.00000000	          0.00000000	          0.00000000	          0.00000000	          0.00000000	          0.00000000	          0.05735239	          0.00000000	          0.00000000	          0.00000000	          0.00000000	
          2.33700000	         -2.84081547	         88.54763168	         -0.43684933	         -0.02521269	          0.00000000	          0.00058277	         -0.00000000	          0.00000000	          0.00000000	          0.00000000	          0.00000000	          0.00000000	          0.00000000	          0.06159148	          0.00000000	          0.00000000	          0.00000000	          0.00000000	
          2.33800000	         -3.62058671	         95.99266237	         -0.46054092	         -0.03876776	          0.00000000	          0.00033755	         -0.00000000	          0.00000000	          0.00000000	          0.00000000	          0.00000000	          0.00000000	          0.00000000	          0.06613857	          0.00000000	          0.00000000	          0.00000000	          0.00000000	
          2.33900000	         -4.44780820	        103.65564305	         -0.49423700	         -0.05221092	          0.00000000	          0.00009642	         -0.00000000	          0.00000000	          0.00000000	          0.00000000	          0.00000000	          0.00000000	          0.00000000	          0.07099952	          0.00000000	          0.00000000	          0.00000000	          0.00000000	
          2.34000000	         -5.32373417	        111.52719083	         -0.53847598	         -0.06550771	          0.00000000	         -0.00013997	         -0.00000000	          0.00000000	          0.00000000	          0.00000000	          0.00000000	          0.00000000	          0.00000000	          0.07617915	          0.00000000	          0.00000000	          0.00000000	          0.00000000	
          2.34100000	         -6.24955169	        119.59632413	         -0.59378591	         -0.07862319	          0.00000000	         -0.00037101	         -0.00000000	          0.00000000	          0.00000000	          0.00000000	          0.00000000	          0.00000000	          0.00000000	          0.08168112	          0.00000000	          0.00000000	          0.00000000	          0.00000000	
          2.34200000	         -7.22637876	        127.85044045	         -0.66067177	         -0.09152301	          0.00000000	         -0.00059608	         -0.00000000	          0.00000000	          0.00000000	          0.00000000	          0.00000000	          0.00000000	          0.00000000	          0.08750772	          0.00000000	          0.00000000	          0.00000000	          0.00000000	
          2.34300000	         -8.25527054	        136.27541191	         -0.73959033	         -0.10417510	          0.00000000	         -0.00081468	         -0.00000000	          0.00000000	          0.00000000	          0.00000000	          0.00000000	          0.00000000	          0.00000000	          0.09365965	          0.00000000	          0.00000000	          0.00000000	          0.00000000	
          2.34400000	         -9.33722400	        144.85577803	         -0.83091816	         -0.11655078	          0.00000000	         -0.00102639	         -0.00000000	          0.00000000	          0.00000000	          0.00000000	          0.00000000	          0.00000000	          0.00000000	          0.10013624	          0.00000000	          0.00000000	          0.00000000	          0.00000000	
          2.34500000	        -10.47317325	        153.57501381	         -0.93491681	         -0.12862484	          0.00000000	         -0.00123092	         -0.00000000	          0.00000000	          0.00000000	          0.00000000	          0.00000000	          0.00000000	          0.00000000	          0.10693611	          0.00000000	          0.00000000	          0.00000000	          0.00000000	
          2.34600000	        -11.66397502	        162.41587317	         -1.05169530	         -0.14037533	          0.00000000	         -0.00142806	         -0.00000000	          0.00000000	          0.00000000	          0.00000000	          0.00000000	          0.00000000	          0.00000000	          0.11405813	          0.00000000	          0.00000000	          0.00000000	          0.00000000	
          2.34700000	        -12.91038397	        171.36078914	         -1.18117150	         -0.15178336	          0.00000000	         -0.00161773	         -0.00000000	          0.00000000	          0.00000000	          0.00000000	          0.00000000	          0.00000000	          0.00000000	          0.12150236	          0.00000000	          0.00000000	          0.00000000	          0.00000000	
          2.34800000	        -14.21301817	        180.39228698	         -1.32303692	         -0.16283289	          0.00000000	         -0.00179991	         -0.00000000	          0.00000000	          0.00000000	          0.00000000	          0.00000000	          0.00000000	          0.00000000	          0.12927082	          0.00000000	          0.00000000	          0.00000000	          0.00000000	
          2.34900000	        -15.57231731	        189.49335945	         -1.47672979	         -0.17351059	          0.00000000	         -0.00197464	         -0.00000000	          0.00000000	          0.00000000	          0.00000000	          0.00000000	          0.00000000	          0.00000000	          0.13736775	          0.00000000	          0.00000000	          0.00000000	          0.00000000	
          2.35000000	        -16.98849807	        198.64776128	         -1.64142007	         -0.18380561	          0.00000000	         -0.00214206	         -0.00000000	          0.00000000	          0.00000000	          0.00000000	          0.00000000	          0.00000000	          0.00000000	          0.14579941	          0.00000000	          0.00000000	          0.00000000	          0.00000000	
          2.35100000	        -18.46151167	        207.84020000	         -1.81600875	         -0.19370944	          0.00000000	         -0.00230235	         -0.00000000	          0.00000000	          0.00000000	          0.00000000	          0.00000000	          0.00000000	          0.00000000	          0.15457336	          0.00000000	          0.00000000	          0.00000000	          0.00000000	
          2.35200000	        -19.99100769	        217.05642279	         -1.99914105	         -0.20321574	          0.00000000	         -0.00245574	         -0.00000000	          0.00000000	          0.00000000	          0.00000000	          0.00000000	         -0.00000000	          0.00000000	          0.16369755	          0.00000000	          0.00000000	          0.00000000	          0.00000000	
          2.35300000	        -21.57630693	        226.28321628	         -2.18923211	         -0.21232019	          0.00000000	         -0.00260253	         -0.00000000	          0.00000000	          0.00000000	         -0.00000000	          0.00000000	         -0.00000000	          0.00000000	          0.17317927	          0.00000000	          0.00000000	          0.00000000	          0.00000000	
          2.35400000	        -23.21638380	        235.50834518	         -2.38450202	         -0.22102032	          0.00000000	         -0.00274300	         -0.00000000	          0.00000000	          0.00000000	         -0.00000000	          0.00000000	         -0.00000000	          0.00000000	          0.18302436	          0.00000000	          0.00000000	          0.00000000	          0.00000000	
          2.35500000	        -24.90985783	        244.72045717	         -2.58301712	         -0.22931539	          0.00000000	         -0.00287753	         -0.00000000	          0.00000000	          0.00000000	         -0.00000000	          0.00000000	         -0.00000000	          0.00000000	          0.19323658	          0.00000000	          0.00000000	          0.00000000	          0.00000000	
          2.35600000	        -26.65499282	        253.90897811	         -2.78273410	         -0.23720624	          0.00000000	         -0.00300645	         -0.00000000	          0.00000000	          0.00000000	         -0.00000000	          0.00000000	         -0.00000000	          0.00000000	          0.20381743	          0.00000000	          0.00000000	          0.00000000	          0.00000000	
          2.35700000	        -28.44970268	        263.06401560	         -2.98154445	         -0.24469518	          0.00000000	         -0.00313017	         -0.00000000	          0.00000000	          0.00000000	         -0.00000000	          0.00000000	         -0.00000000	          0.00000000	          0.21476622	          0.00000000	          0.00000000	          0.00000000	          0.00000000	
          2.35800000	        -30.29156334	        272.17628155	         -3.17731703	         -0.25178581	          0.00000000	         -0.00324906	         -0.00000000	          0.00000000	          0.00000000	         -0.00000000	          0.00000000	         -0.00000000	          0.00000000	          0.22608043	          0.00000000	          0.00000000	          0.00000000	          0.00000000	
          2.35900000	        -32.17783080	        281.23703776	         -3.36793726	         -0.25848293	          0.00000000	         -0.00336352	         -0.00000000	          0.00000000	          0.00000000	         -0.00000000	          0.00000000	         -0.00000000	          0.00000000	          0.23775606	          0.00000000	          0.00000000	          0.00000000	          0.00000000	
          2.36000000	        -34.10546596	        290.23806396	         -3.55134186	         -0.26479239	          0.00000000	         -0.00347395	         -0.00000000	          0.00000000	          0.00000000	         -0.00000000	          0.00000000	         -0.00000000	          0.00000000	          0.24978795	          0.00000000	          0.00000000	          0.00000000	          0.00000000	
          2.36100000	        -36.07116647	        299.17164490	         -3.72554827	         -0.27072101	          0.00000000	         -0.00358072	         -0.00000000	          0.00000000	          0.00000000	         -0.00000000	          0.00000000	         -0.00000000	          0.00000000	          0.26216969	          0.00000000	          0.00000000	          0.00000000	          0.00000000	
